# Made in Blockbench 5.1.6
mtllib bvg_fahrkartenautomat.mtl

o cube
v 1 0 -0.1875
v -1 0 -0.1875
v -1 0.625 -0.1875
v 1 0.625 -0.1875
v 1 0 0.4375
v 1 0.625 0.4375
v -1 0 0.4375
v -1 0.625 0.4375
vt 0.25 0.671875
vt 0.375 0.671875
vt 0.375 0.7109375
vt 0.25 0.7109375
vt 0.375 0.63671875
vt 0.421875 0.63671875
vt 0.421875 0.67578125
vt 0.375 0.67578125
vt 0 0.66015625
vt 0.125 0.66015625
vt 0.125 0.69921875
vt 0 0.69921875
vt 0.1171875 0.57421875
vt 0.1640625 0.57421875
vt 0.1640625 0.61328125
vt 0.1171875 0.61328125
vt 0.375 0.94921875
vt 0.25 0.94921875
vt 0.25 0.90234375
vt 0.375 0.90234375
vt 0.375 0.85546875
vt 0.25 0.85546875
vt 0.25 0.90234375
vt 0.375 0.90234375
vn 0 0 -1
vn 1 0 0
vn 0 0 1
vn -1 0 0
vn 0 1 0
vn 0 -1 0
usemtl m_3f5eadc5-3862-df06-e4d6-08d4708c5559
f 1/1/1 2/2/1 3/3/1 4/4/1
f 5/5/2 1/6/2 4/7/2 6/8/2
f 7/9/3 5/10/3 6/11/3 8/12/3
f 2/13/4 7/14/4 8/15/4 3/16/4
f 8/17/5 6/18/5 4/19/5 3/20/5
f 2/21/6 1/22/6 5/23/6 7/24/6
o cube
v 1 0 0.4375
v -1 0 0.4375
v -1 2.875 0.4375
v 1 2.875 0.4375
v 1 0 0.5
v 1 2.875 0.5
v -1 0 0.5
v -1 2.875 0.5
vt 0 0.8125
vt 0.125 0.8125
vt 0.125 1
vt 0 1
vt 0.39453125 0.40234375
vt 0.3984375 0.40234375
vt 0.3984375 0.58203125
vt 0.39453125 0.58203125
vt 0.125 0.8125
vt 0.25 0.8125
vt 0.25 0.9921875
vt 0.125 0.9921875
vt 0.3984375 0.40234375
vt 0.40234375 0.40234375
vt 0.40234375 0.58203125
vt 0.3984375 0.58203125
vt 0.53125 0.72265625
vt 0.40625 0.72265625
vt 0.40625 0.71875
vt 0.53125 0.71875
vt 0.53125 0.71484375
vt 0.40625 0.71484375
vt 0.40625 0.71875
vt 0.53125 0.71875
vn 0 0 -1
vn 1 0 0
vn 0 0 1
vn -1 0 0
vn 0 1 0
vn 0 -1 0
usemtl m_3f5eadc5-3862-df06-e4d6-08d4708c5559
f 9/25/7 10/26/7 11/27/7 12/28/7
f 13/29/8 9/30/8 12/31/8 14/32/8
f 15/33/9 13/34/9 14/35/9 16/36/9
f 10/37/10 15/38/10 16/39/10 11/40/10
f 16/41/11 14/42/11 12/43/11 11/44/11
f 10/45/12 9/46/12 13/47/12 15/48/12
o cube
v -0.125 1.1875 -0.3125
v -0.875 1.1875 -0.3125
v -0.875 1.625 -0.3125
v -0.125 1.625 -0.3125
v -0.125 1.1875 0.4375
v -0.125 1.625 0.4375
v -0.875 1.1875 0.4375
v -0.875 1.625 0.4375
vt 0 0.97265625
vt 0.046875 0.97265625
vt 0.046875 1
vt 0 1
vt 0.1640625 0.5546875
vt 0.21484375 0.5546875
vt 0.21484375 0.56640625
vt 0.1640625 0.56640625
vt 0 0.5703125
vt 0.0546875 0.5703125
vt 0.0546875 0.58203125
vt 0 0.58203125
vt 0.265625 0.57421875
vt 0.265625 0.6015625
vt 0.21875 0.6015625
vt 0.21875 0.57421875
vt 0.40625 0.81640625
vt 0.3515625 0.81640625
vt 0.3515625 0.765625
vt 0.40625 0.765625
vt 0.40625 0.71484375
vt 0.3515625 0.71484375
vt 0.3515625 0.765625
vt 0.40625 0.765625
vn 0 0 -1
vn 1 0 0
vn 0 0 1
vn -1 0 0
vn 0 1 0
vn 0 -1 0
usemtl m_3f5eadc5-3862-df06-e4d6-08d4708c5559
f 17/49/13 18/50/13 19/51/13 20/52/13
f 21/53/14 17/54/14 20/55/14 22/56/14
f 23/57/15 21/58/15 22/59/15 24/60/15
f 18/61/16 23/62/16 24/63/16 19/64/16
f 24/65/17 22/66/17 20/67/17 19/68/17
f 18/69/18 17/70/18 21/71/18 23/72/18
o cube
v 0.6875 1.625 -0.3125
v -0.4375 1.625 -0.3125
v -0.4375 2.3125 -0.3125
v 0.6875 2.3125 -0.3125
v 0.6875 1.625 0
v 0.6875 2.3125 0
v -0.4375 1.625 0
v -0.4375 2.3125 0
vt 0 0.93359375
vt 0.0703125 0.93359375
vt 0.0703125 0.9765625
vt 0 0.9765625
vt 0.1640625 0.5546875
vt 0.21484375 0.5546875
vt 0.21484375 0.56640625
vt 0.1640625 0.56640625
vt 0 0.5703125
vt 0.0546875 0.5703125
vt 0.0546875 0.58203125
vt 0 0.58203125
vt 0.265625 0.57421875
vt 0.265625 0.6015625
vt 0.21875 0.6015625
vt 0.21875 0.57421875
vt 0.40625 0.81640625
vt 0.3515625 0.81640625
vt 0.3515625 0.765625
vt 0.40625 0.765625
vt 0.40625 0.71484375
vt 0.3515625 0.71484375
vt 0.3515625 0.765625
vt 0.40625 0.765625
vn 0 0 -1
vn 1 0 0
vn 0 0 1
vn -1 0 0
vn 0 1 0
vn 0 -1 0
usemtl m_3f5eadc5-3862-df06-e4d6-08d4708c5559
f 25/73/19 26/74/19 27/75/19 28/76/19
f 29/77/20 25/78/20 28/79/20 30/80/20
f 31/81/21 29/82/21 30/83/21 32/84/21
f 26/85/22 31/86/22 32/87/22 27/88/22
f 32/89/23 30/90/23 28/91/23 27/92/23
f 26/93/24 25/94/24 29/95/24 31/96/24
o cube
v 1 0.625 -0.25
v 0.75 0.625 -0.25
v 0.75 2.875 -0.25
v 1 2.875 -0.25
v 1 0.625 0.4375
v 1 2.875 0.4375
v 0.75 0.625 0.4375
v 0.75 2.875 0.4375
vt 0.3359375 0.49609375
vt 0.3515625 0.49609375
vt 0.3515625 0.63671875
vt 0.3359375 0.63671875
vt 0.35546875 0.49609375
vt 0.39453125 0.49609375
vt 0.39453125 0.63671875
vt 0.35546875 0.63671875
vt 0.35546875 0.53515625
vt 0.3671875 0.53515625
vt 0.3671875 0.5859375
vt 0.35546875 0.5859375
vt 0.375 0.94921875
vt 0.42578125 0.94921875
vt 0.42578125 1
vt 0.375 1
vt 0.3515625 0.5390625
vt 0.3359375 0.5390625
vt 0.3359375 0.49609375
vt 0.3515625 0.49609375
vt 0.390625 0.49609375
vt 0.37890625 0.49609375
vt 0.37890625 0.5390625
vt 0.390625 0.5390625
vn 0 0 -1
vn 1 0 0
vn 0 0 1
vn -1 0 0
vn 0 1 0
vn 0 -1 0
usemtl m_3f5eadc5-3862-df06-e4d6-08d4708c5559
f 33/97/25 34/98/25 35/99/25 36/100/25
f 37/101/26 33/102/26 36/103/26 38/104/26
f 39/105/27 37/106/27 38/107/27 40/108/27
f 34/109/28 39/110/28 40/111/28 35/112/28
f 40/113/29 38/114/29 36/115/29 35/116/29
f 34/117/30 33/118/30 37/119/30 39/120/30
o cube
v 0.75 2.8125 -0.25
v -0.8125 2.8125 -0.25
v -0.8125 2.875 -0.25
v 0.75 2.875 -0.25
v 0.75 2.8125 0.4375
v 0.75 2.875 0.4375
v -0.8125 2.8125 0.4375
v -0.8125 2.875 0.4375
vt 0.3046875 0.45703125
vt 0.31640625 0.45703125
vt 0.31640625 0.5078125
vt 0.3046875 0.5078125
vt 0.34375 0.40625
vt 0.39453125 0.40625
vt 0.39453125 0.59375
vt 0.34375 0.59375
vt 0.35546875 0.4921875
vt 0.3671875 0.4921875
vt 0.3671875 0.54296875
vt 0.35546875 0.54296875
vt 0.375 0.90625
vt 0.42578125 0.90625
vt 0.42578125 0.95703125
vt 0.375 0.95703125
vt 0.09765625 0.75
vt 0 0.75
vt 0 0.70703125
vt 0.09765625 0.70703125
vt 0.390625 0.4921875
vt 0.37890625 0.4921875
vt 0.37890625 0.54296875
vt 0.390625 0.54296875
vn 0 0 -1
vn 1 0 0
vn 0 0 1
vn -1 0 0
vn 0 1 0
vn 0 -1 0
usemtl m_3f5eadc5-3862-df06-e4d6-08d4708c5559
f 41/121/31 42/122/31 43/123/31 44/124/31
f 45/125/32 41/126/32 44/127/32 46/128/32
f 47/129/33 45/130/33 46/131/33 48/132/33
f 42/133/34 47/134/34 48/135/34 43/136/34
f 48/137/35 46/138/35 44/139/35 43/140/35
f 42/141/36 41/142/36 45/143/36 47/144/36
o cube
v 0.7484375000000001 2.355317671924457 -0.46525938707414805
v -0.996875 2.355317671924457 -0.46525938707414805
v -0.996875 2.8749999089620557 -0.24999995636878508
v 0.7484375000000001 2.8749999089620557 -0.24999995636878508
v 0.7484375000000001 2.116140526696276 0.11216532074540618
v 0.7484375000000001 2.6358227637338745 0.32742475145076916
v -0.996875 2.116140526696276 0.11216532074540618
v -0.996875 2.6358227637338745 0.32742475145076916
vt 0.1171875 0.5390625
vt 0.2265625 0.5390625
vt 0.2265625 0.57421875
vt 0.1171875 0.57421875
vt 0.41015625 0.91015625
vt 0.41015625 0.94921875
vt 0.375 0.94921875
vt 0.375 0.91015625
vt 0.3046875 0.5390625
vt 0.28515625 0.5390625
vt 0.28515625 0.58984375
vt 0.3046875 0.58984375
vt 0.37890625 0.91015625
vt 0.37890625 0.87109375
vt 0.4140625 0.87109375
vt 0.4140625 0.91015625
vt 0 0.796875
vt 0.01953125 0.796875
vt 0.01953125 0.82421875
vt 0 0.82421875
vt 0.109375 0.93359375
vt 0 0.93359375
vt 0 0.89453125
vt 0.109375 0.89453125
vn 0 0.38268343236508967 -0.9238795325112868
vn 1 0 0
vn 0 -0.38268343236508984 0.9238795325112867
vn -1 0 0
vn 0 0.9238795325112868 0.3826834323650896
vn 0 -0.9238795325112871 -0.3826834323650894
usemtl m_3f5eadc5-3862-df06-e4d6-08d4708c5559
f 49/145/37 50/146/37 51/147/37 52/148/37
f 53/149/38 49/150/38 52/151/38 54/152/38
f 55/153/39 53/154/39 54/155/39 56/156/39
f 50/157/40 55/158/40 56/159/40 51/160/40
f 56/161/41 54/162/41 52/163/41 51/164/41
f 50/165/42 49/166/42 53/167/42 55/168/42
o cube
v 0.7484375000000001 0.6250002193311863 -0.24999985325669283
v -0.996875 0.6250002193311863 -0.24999985325669283
v -0.996875 1.144682456368785 -0.46525928396205574
v 0.7484375000000001 1.144682456368785 -0.46525928396205574
v 0.7484375000000001 0.8641773645593673 0.3274248545628614
v 0.7484375000000001 1.3838596015969662 0.11216542385749839
v -0.996875 0.8641773645593673 0.3274248545628614
v -0.996875 1.3838596015969662 0.11216542385749839
vt 0 0.75
vt 0.109375 0.75
vt 0.109375 0.78515625
vt 0 0.78515625
vt 0.41015625 0.91015625
vt 0.41015625 0.94921875
vt 0.375 0.94921875
vt 0.375 0.91015625
vt 0.3046875 0.5390625
vt 0.28515625 0.5390625
vt 0.28515625 0.58984375
vt 0.3046875 0.58984375
vt 0.375 0.91015625
vt 0.375 0.87109375
vt 0.41015625 0.87109375
vt 0.41015625 0.91015625
vt 0 0.796875
vt 0.01953125 0.796875
vt 0.01953125 0.82421875
vt 0 0.82421875
vt 0.109375 0.78515625
vt 0 0.78515625
vt 0 0.82421875
vt 0.109375 0.82421875
vn 0 -0.38268343236508956 -0.9238795325112868
vn 1 0 0
vn 0 0.3826834323650898 0.9238795325112868
vn -1 0 0
vn 0 0.9238795325112868 -0.38268343236508995
vn 0 -0.9238795325112868 0.3826834323650898
usemtl m_3f5eadc5-3862-df06-e4d6-08d4708c5559
f 57/169/43 58/170/43 59/171/43 60/172/43
f 61/173/44 57/174/44 60/175/44 62/176/44
f 63/177/45 61/178/45 62/179/45 64/180/45
f 58/181/46 63/182/46 64/183/46 59/184/46
f 64/185/47 62/186/47 60/187/47 59/188/47
f 58/189/48 57/190/48 61/191/48 63/192/48
o cube
v 0.75 1.1428175 -0.46525937500000003
v 0.625 1.1428175 -0.46525937500000003
v 0.625 2.3553175 -0.46525937500000003
v 0.75 2.3553175 -0.46525937500000003
v 0.75 1.1428175 0.15974062499999997
v 0.75 2.3553175 0.15974062499999997
v 0.625 1.1428175 0.15974062499999997
v 0.625 2.3553175 0.15974062499999997
vt 0.265625 0.51171875
vt 0.2734375 0.51171875
vt 0.2734375 0.58984375
vt 0.265625 0.58984375
vt 0.41796875 0.83203125
vt 0.37890625 0.83203125
vt 0.37890625 0.90234375
vt 0.41796875 0.90234375
vt 0.3046875 0.5390625
vt 0.28515625 0.5390625
vt 0.28515625 0.58984375
vt 0.3046875 0.58984375
vt 0.09765625 1
vt 0.09765625 0.9296875
vt 0.109375 0.9296875
vt 0.109375 1
vt 0 0.796875
vt 0.01953125 0.796875
vt 0.01953125 0.82421875
vt 0 0.82421875
vt 0.32421875 0.58984375
vt 0.3046875 0.58984375
vt 0.3046875 0.55078125
vt 0.32421875 0.55078125
vn 0 0 -1
vn 1 0 0
vn 0 0 1
vn -1 0 0
vn 0 1 0
vn 0 -1 0
usemtl m_3f5eadc5-3862-df06-e4d6-08d4708c5559
f 65/193/49 66/194/49 67/195/49 68/196/49
f 69/197/50 65/198/50 68/199/50 70/200/50
f 71/201/51 69/202/51 70/203/51 72/204/51
f 66/205/52 71/206/52 72/207/52 67/208/52
f 72/209/53 70/210/53 68/211/53 67/212/53
f 66/213/54 65/214/54 69/215/54 71/216/54
o cube
v 0.625 1.1428175 -0.46525937500000003
v -0.875 1.1428175 -0.46525937500000003
v -0.875 1.2678175 -0.46525937500000003
v 0.625 1.2678175 -0.46525937500000003
v 0.625 1.1428175 0.15974062499999997
v 0.625 1.2678175 0.15974062499999997
v -0.875 1.1428175 0.15974062499999997
v -0.875 1.2678175 0.15974062499999997
vt 0 0.7890625
vt 0.09375 0.7890625
vt 0.09375 0.796875
vt 0 0.796875
vt 0.42578125 0.91015625
vt 0.42578125 0.94921875
vt 0.375 0.94921875
vt 0.375 0.91015625
vt 0.3046875 0.5390625
vt 0.28515625 0.5390625
vt 0.28515625 0.58984375
vt 0.3046875 0.58984375
vt 0.375 0.91015625
vt 0.375 0.87109375
vt 0.41015625 0.87109375
vt 0.41015625 0.91015625
vt 0 0.796875
vt 0.09375 0.796875
vt 0.09375 0.8359375
vt 0 0.8359375
vt 0.32421875 0.58984375
vt 0.3046875 0.58984375
vt 0.3046875 0.55078125
vt 0.32421875 0.55078125
vn 0 0 -1
vn 1 0 0
vn 0 0 1
vn -1 0 0
vn 0 1 0
vn 0 -1 0
usemtl m_3f5eadc5-3862-df06-e4d6-08d4708c5559
f 73/217/55 74/218/55 75/219/55 76/220/55
f 77/221/56 73/222/56 76/223/56 78/224/56
f 79/225/57 77/226/57 78/227/57 80/228/57
f 74/229/58 79/230/58 80/231/58 75/232/58
f 80/233/59 78/234/59 76/235/59 75/236/59
f 74/237/60 73/238/60 77/239/60 79/240/60
o cube
v 0.625 1.2678175 -0.46525937500000003
v -0.31093750000000003 1.2678175 -0.46525937500000003
v -0.31093750000000003 1.3928175 -0.46525937500000003
v 0.625 1.3928175 -0.46525937500000003
v 0.625 1.2678175 0.15974062499999997
v 0.625 1.3928175 0.15974062499999997
v -0.31093750000000003 1.2678175 0.15974062499999997
v -0.31093750000000003 1.3928175 0.15974062499999997
vt 0.1484375 0.55078125
vt 0.20703125 0.55078125
vt 0.20703125 0.55859375
vt 0.1484375 0.55859375
vt 0.42578125 0.91015625
vt 0.42578125 0.94921875
vt 0.375 0.94921875
vt 0.375 0.91015625
vt 0.3046875 0.5390625
vt 0.28515625 0.5390625
vt 0.28515625 0.58984375
vt 0.3046875 0.58984375
vt 0.42578125 0.8359375
vt 0.46484375 0.8359375
vt 0.46484375 0.84375
vt 0.42578125 0.84375
vt 0 0.796875
vt 0.01953125 0.796875
vt 0.01953125 0.82421875
vt 0 0.82421875
vt 0.32421875 0.58984375
vt 0.3046875 0.58984375
vt 0.3046875 0.55078125
vt 0.32421875 0.55078125
vn 0 0 -1
vn 1 0 0
vn 0 0 1
vn -1 0 0
vn 0 1 0
vn 0 -1 0
usemtl m_3f5eadc5-3862-df06-e4d6-08d4708c5559
f 81/241/61 82/242/61 83/243/61 84/244/61
f 85/245/62 81/246/62 84/247/62 86/248/62
f 87/249/63 85/250/63 86/251/63 88/252/63
f 82/253/64 87/254/64 88/255/64 83/256/64
f 88/257/65 86/258/65 84/259/65 83/260/65
f 82/261/66 81/262/66 85/263/66 87/264/66
o cube
v -0.8734375000000001 1.1428175 -0.46525937500000003
v -0.9984375000000001 1.1428175 -0.46525937500000003
v -0.9984375000000001 2.3553175 -0.46525937500000003
v -0.8734375000000001 2.3553175 -0.46525937500000003
v -0.8734375000000001 1.1428175 0.15974062499999997
v -0.8734375000000001 2.3553175 0.15974062499999997
v -0.9984375000000001 1.1428175 0.15974062499999997
v -0.9984375000000001 2.3553175 0.15974062499999997
vt 0.2734375 0.51171875
vt 0.28125 0.51171875
vt 0.28125 0.58984375
vt 0.2734375 0.58984375
vt 0.0703125 0.921875
vt 0.109375 0.921875
vt 0.109375 1
vt 0.0703125 1
vt 0.3046875 0.5390625
vt 0.28515625 0.5390625
vt 0.28515625 0.58984375
vt 0.3046875 0.58984375
vt 0.375 0.83203125
vt 0.4140625 0.83203125
vt 0.4140625 0.90234375
vt 0.375 0.90234375
vt 0 0.796875
vt 0.01953125 0.796875
vt 0.01953125 0.82421875
vt 0 0.82421875
vt 0.32421875 0.58984375
vt 0.3046875 0.58984375
vt 0.3046875 0.55078125
vt 0.32421875 0.55078125
vn 0 0 -1
vn 1 0 0
vn 0 0 1
vn -1 0 0
vn 0 1 0
vn 0 -1 0
usemtl m_3f5eadc5-3862-df06-e4d6-08d4708c5559
f 89/265/67 90/266/67 91/267/67 92/268/67
f 93/269/68 89/270/68 92/271/68 94/272/68
f 95/273/69 93/274/69 94/275/69 96/276/69
f 90/277/70 95/278/70 96/279/70 91/280/70
f 96/281/71 94/282/71 92/283/71 91/284/71
f 90/285/72 89/286/72 93/287/72 95/288/72
o cube
v -0.4375 1.58100625 -0.028545000000000043
v -0.8125 1.58100625 -0.028545000000000043
v -0.8125 2.2685062499999997 -0.028545000000000043
v -0.4375 2.2685062499999997 -0.028545000000000043
v -0.4375 1.58100625 0.03395499999999996
v -0.4375 2.2685062499999997 0.03395499999999996
v -0.8125 1.58100625 0.03395499999999996
v -0.8125 2.2685062499999997 0.03395499999999996
vt 0.40625 0.72265625
vt 0.453125 0.72265625
vt 0.453125 0.80859375
vt 0.40625 0.80859375
vt 0.15625 0.53125
vt 0.16015625 0.53125
vt 0.16015625 0.57421875
vt 0.15625 0.57421875
vt 0.40625 0.72265625
vt 0.4296875 0.72265625
vt 0.4296875 0.765625
vt 0.40625 0.765625
vt 0.16015625 0.53125
vt 0.1640625 0.53125
vt 0.1640625 0.57421875
vt 0.16015625 0.57421875
vt 0.4453125 0.64453125
vt 0.421875 0.64453125
vt 0.421875 0.640625
vt 0.4453125 0.640625
vt 0.4453125 0.63671875
vt 0.421875 0.63671875
vt 0.421875 0.640625
vt 0.4453125 0.640625
vn 0 0 -1
vn 1 0 0
vn 0 0 1
vn -1 0 0
vn 0 1 0
vn 0 -1 0
usemtl m_3f5eadc5-3862-df06-e4d6-08d4708c5559
f 97/289/73 98/290/73 99/291/73 100/292/73
f 101/293/74 97/294/74 100/295/74 102/296/74
f 103/297/75 101/298/75 102/299/75 104/300/75
f 98/301/76 103/302/76 104/303/76 99/304/76
f 104/305/77 102/306/77 100/307/77 99/308/77
f 98/309/78 97/310/78 101/311/78 103/312/78
o cube
v -0.4375 1.5672575292180446 -0.2885822854771819
v -0.8125 1.5672575292180446 -0.2885822854771819
v -0.8125 1.625 -0.3125
v -0.4375 1.625 -0.3125
v -0.4375 1.7107638163549532 0.0578725392145506
v -0.4375 1.7685062871369086 0.0339548246917325
v -0.8125 1.7107638163549532 0.0578725392145506
v -0.8125 1.7685062871369086 0.0339548246917325
vt 0.30859375 0.8125
vt 0.33203125 0.8125
vt 0.33203125 0.81640625
vt 0.30859375 0.81640625
vt 0.3515625 0.7109375
vt 0.375 0.7109375
vt 0.375 0.71484375
vt 0.3515625 0.71484375
vt 0.375 0.81640625
vt 0.3984375 0.81640625
vt 0.3984375 0.8203125
vt 0.375 0.8203125
vt 0.421875 0.64453125
vt 0.4453125 0.64453125
vt 0.4453125 0.6484375
vt 0.421875 0.6484375
vt 0.1015625 0.58203125
vt 0.078125 0.58203125
vt 0.078125 0.55859375
vt 0.1015625 0.55859375
vt 0.4453125 0.65234375
vt 0.421875 0.65234375
vt 0.421875 0.67578125
vt 0.4453125 0.67578125
vn 0 -0.3826834323650899 -0.9238795325112867
vn 1 0 0
vn 0 0.3826834323650899 0.9238795325112867
vn -1 0 0
vn 0 0.9238795325112868 -0.3826834323650897
vn 0 -0.9238795325112868 0.3826834323650897
usemtl m_3f5eadc5-3862-df06-e4d6-08d4708c5559
f 105/313/79 106/314/79 107/315/79 108/316/79
f 109/317/80 105/318/80 108/319/80 110/320/80
f 111/321/81 109/322/81 110/323/81 112/324/81
f 106/325/82 111/326/82 112/327/82 107/328/82
f 112/329/83 110/330/83 108/331/83 107/332/83
f 106/333/84 105/334/84 109/335/84 111/336/84
o cube
v -0.5 1.6164458151101582 -0.24527543239071534
v -0.75 1.6164458151101582 -0.24527543239071534
v -0.75 1.6741882858921135 -0.26919314691353347
v -0.5 1.6741882858921135 -0.26919314691353347
v -0.5 1.6881989586786124 -0.07204802004484906
v -0.5 1.745941429460568 -0.09596573456766716
v -0.75 1.6881989586786124 -0.07204802004484906
v -0.75 1.745941429460568 -0.09596573456766716
vt 0.33203125 0.8125
vt 0.34765625 0.8125
vt 0.34765625 0.81640625
vt 0.33203125 0.81640625
vt 0.390625 0.82421875
vt 0.40234375 0.82421875
vt 0.40234375 0.828125
vt 0.390625 0.828125
vt 0.390625 0.828125
vt 0.40625 0.828125
vt 0.40625 0.83203125
vt 0.390625 0.83203125
vt 0.390625 0.8203125
vt 0.40234375 0.8203125
vt 0.40234375 0.82421875
vt 0.390625 0.82421875
vt 0.390625 0.83203125
vt 0.375 0.83203125
vt 0.375 0.8203125
vt 0.390625 0.8203125
vt 0.34375 0.6015625
vt 0.328125 0.6015625
vt 0.328125 0.61328125
vt 0.34375 0.61328125
vn 0 -0.3826834323650903 -0.9238795325112866
vn 1 0 0
vn 0 0.3826834323650893 0.9238795325112871
vn -1 0 0
vn 0 0.9238795325112867 -0.38268343236509017
vn 0 -0.9238795325112868 0.3826834323650896
usemtl m_3f5eadc5-3862-df06-e4d6-08d4708c5559
f 113/337/85 114/338/85 115/339/85 116/340/85
f 117/341/86 113/342/86 116/343/86 118/344/86
f 119/345/87 117/346/87 118/347/87 120/348/87
f 114/349/88 119/350/88 120/351/88 115/352/88
f 120/353/89 118/354/89 116/355/89 115/356/89
f 114/357/90 113/358/90 117/359/90 119/360/90
o cube
v -0.8125 0.625 -0.25
v -1 0.625 -0.25
v -1 2.875 -0.25
v -0.8125 2.875 -0.25
v -0.8125 0.625 0.4375
v -0.8125 2.875 0.4375
v -1 0.625 0.4375
v -1 2.875 0.4375
vt 0.1015625 0.54296875
vt 0.11328125 0.54296875
vt 0.11328125 0.58203125
vt 0.1015625 0.58203125
vt 0.136328125 0.51015625
vt 0.187109375 0.51015625
vt 0.187109375 0.65078125
vt 0.136328125 0.65078125
vt 0.40234375 0.5390625
vt 0.4140625 0.5390625
vt 0.4140625 0.578125
vt 0.40234375 0.578125
vt 0.3515625 0.49609375
vt 0.390625 0.49609375
vt 0.390625 0.63671875
vt 0.3515625 0.63671875
vt 0.06640625 0.57421875
vt 0.0546875 0.57421875
vt 0.0546875 0.53125
vt 0.06640625 0.53125
vt 0.078125 0.53125
vt 0.06640625 0.53125
vt 0.06640625 0.57421875
vt 0.078125 0.57421875
vn 0 0 -1
vn 1 0 0
vn 0 0 1
vn -1 0 0
vn 0 1 0
vn 0 -1 0
usemtl m_3f5eadc5-3862-df06-e4d6-08d4708c5559
f 121/361/91 122/362/91 123/363/91 124/364/91
f 125/365/92 121/366/92 124/367/92 126/368/92
f 127/369/93 125/370/93 126/371/93 128/372/93
f 122/373/94 127/374/94 128/375/94 123/376/94
f 128/377/95 126/378/95 124/379/95 123/380/95
f 122/381/96 121/382/96 125/383/96 127/384/96
o cube
v -0.8125 1.625 -0.3125
v -0.875 1.625 -0.3125
v -0.875 2.3125 -0.3125
v -0.8125 2.3125 -0.3125
v -0.8125 1.625 -0.25
v -0.8125 2.3125 -0.25
v -0.875 1.625 -0.25
v -0.875 2.3125 -0.25
vt 0.00390625 0.93359375
vt 0.0078125 0.93359375
vt 0.0078125 0.9765625
vt 0.00390625 0.9765625
vt 0.26171875 0.578125
vt 0.26171875 0.58203125
vt 0.21875 0.58203125
vt 0.21875 0.578125
vt 0.40234375 0.5390625
vt 0.4140625 0.5390625
vt 0.4140625 0.578125
vt 0.40234375 0.578125
vt 0.3515625 0.49609375
vt 0.390625 0.49609375
vt 0.390625 0.63671875
vt 0.3515625 0.63671875
vt 0.06640625 0.57421875
vt 0.0546875 0.57421875
vt 0.0546875 0.53125
vt 0.06640625 0.53125
vt 0.078125 0.53125
vt 0.06640625 0.53125
vt 0.06640625 0.57421875
vt 0.078125 0.57421875
vn 0 0 -1
vn 1 0 0
vn 0 0 1
vn -1 0 0
vn 0 1 0
vn 0 -1 0
usemtl m_3f5eadc5-3862-df06-e4d6-08d4708c5559
f 129/385/97 130/386/97 131/387/97 132/388/97
f 133/389/98 129/390/98 132/391/98 134/392/98
f 135/393/99 133/394/99 134/395/99 136/396/99
f 130/397/100 135/398/100 136/399/100 131/400/100
f 136/401/101 134/402/101 132/403/101 131/404/101
f 130/405/102 129/406/102 133/407/102 135/408/102
o cube
v 0.625 1.4171174707819554 -0.6010822854771819
v -0.3125 1.4171174707819554 -0.6010822854771819
v -0.3125 2.1677695909473758 -0.2901519966805465
v 0.625 2.1677695909473758 -0.2901519966805465
v 0.625 1.2975288981678648 -0.3123699315674048
v 0.625 2.0481810183332856 -0.001439642770769356
v -0.3125 1.2975288981678648 -0.3123699315674048
v -0.3125 2.0481810183332856 -0.001439642770769356
vt 0 0.41796875
vt 0.1171875 0.41796875
vt 0.1171875 0.52734375
vt 0 0.52734375
vt 0.40234375 0.52734375
vt 0.421875 0.52734375
vt 0.421875 0.578125
vt 0.40234375 0.578125
vt 0.05859375 0.60546875
vt 0.1171875 0.60546875
vt 0.1171875 0.66015625
vt 0.05859375 0.66015625
vt 0.40234375 0.52734375
vt 0.421875 0.52734375
vt 0.421875 0.578125
vt 0.40234375 0.578125
vt 0.30859375 0.81640625
vt 0.25 0.81640625
vt 0.25 0.8125
vt 0.30859375 0.8125
vt 0.484375 0.6484375
vt 0.42578125 0.6484375
vt 0.42578125 0.66796875
vt 0.484375 0.66796875
vn 0 0.3826834323650898 -0.9238795325112868
vn 1 0 0
vn 0 -0.3826834323650898 0.9238795325112868
vn -1 0 0
vn 0 0.923879532511287 0.38268343236508934
vn 0 -0.9238795325112867 -0.3826834323650898
usemtl m_3f5eadc5-3862-df06-e4d6-08d4708c5559
f 137/409/103 138/410/103 139/411/103 140/412/103
f 141/413/104 137/414/104 140/415/104 142/416/104
f 143/417/105 141/418/105 142/419/105 144/420/105
f 138/421/106 143/422/106 144/423/106 139/424/106
f 144/425/107 142/426/107 140/427/107 139/428/107
f 138/429/108 137/430/108 141/431/108 143/432/108
o cube
v 0.75 0.625 -0.25
v -0.8125 0.625 -0.25
v -0.8125 0.6875 -0.25
v 0.75 0.6875 -0.25
v 0.75 0.625 -0.1875
v 0.75 0.6875 -0.1875
v -0.8125 0.625 -0.1875
v -0.8125 0.6875 -0.1875
vt 0 0.9375
vt 1 0.9375
vt 1 1
vt 0 1
vt 0 0.9375
vt 0.0625 0.9375
vt 0.0625 1
vt 0 1
vt 0 0.9375
vt 1 0.9375
vt 1 1
vt 0 1
vt 0 0.9375
vt 0.0625 0.9375
vt 0.0625 1
vt 0 1
vt 0 0.9375
vt 1 0.9375
vt 1 1
vt 0 1
vt 0 0.78515625
vt 0.09765625 0.78515625
vt 0.09765625 0.7890625
vt 0 0.7890625
vn 0 0 -1
vn 1 0 0
vn 0 0 1
vn -1 0 0
vn 0 1 0
vn 0 -1 0
usemtl m_3f5eadc5-3862-df06-e4d6-08d4708c5559
f 145/433/109 146/434/109 147/435/109 148/436/109
f 149/437/110 145/438/110 148/439/110 150/440/110
f 151/441/111 149/442/111 150/443/111 152/444/111
f 146/445/112 151/446/112 152/447/112 147/448/112
f 152/449/113 150/450/113 148/451/113 147/452/113
f 146/453/114 145/454/114 149/455/114 151/456/114