# Made in Blockbench 5.1.6
mtllib db_fahrkartenautomat.mtl

o cube
v 1 0 -0.3125
v -1 0 -0.3125
v -1 0.625 -0.3125
v 1 0.625 -0.3125
v 1 0 0.4375
v 1 0.625 0.4375
v -1 0 0.4375
v -1 0.625 0.4375
vt 0.25 0.671875
vt 0.375 0.671875
vt 0.375 0.7109375
vt 0.25 0.7109375
vt 0.375 0.63671875
vt 0.421875 0.63671875
vt 0.421875 0.67578125
vt 0.375 0.67578125
vt 0 0.66015625
vt 0.125 0.66015625
vt 0.125 0.69921875
vt 0 0.69921875
vt 0.1171875 0.57421875
vt 0.1640625 0.57421875
vt 0.1640625 0.61328125
vt 0.1171875 0.61328125
vt 0.375 0.94921875
vt 0.25 0.94921875
vt 0.25 0.90234375
vt 0.375 0.90234375
vt 0.375 0.85546875
vt 0.25 0.85546875
vt 0.25 0.90234375
vt 0.375 0.90234375
vn 0 0 -1
vn 1 0 0
vn 0 0 1
vn -1 0 0
vn 0 1 0
vn 0 -1 0
usemtl m_e010923a-1c95-672b-a757-086599275e86
f 1/1/1 2/2/1 3/3/1 4/4/1
f 5/5/2 1/6/2 4/7/2 6/8/2
f 7/9/3 5/10/3 6/11/3 8/12/3
f 2/13/4 7/14/4 8/15/4 3/16/4
f 8/17/5 6/18/5 4/19/5 3/20/5
f 2/21/6 1/22/6 5/23/6 7/24/6
o cube
v 1 0 0.4375
v -1 0 0.4375
v -1 2.875 0.4375
v 1 2.875 0.4375
v 1 0 0.5
v 1 2.875 0.5
v -1 0 0.5
v -1 2.875 0.5
vt 0 0.8125
vt 0.125 0.8125
vt 0.125 1
vt 0 1
vt 0.39453125 0.40234375
vt 0.3984375 0.40234375
vt 0.3984375 0.58984375
vt 0.39453125 0.58984375
vt 0.125 0.8125
vt 0.25 0.8125
vt 0.25 1
vt 0.125 1
vt 0.3984375 0.40234375
vt 0.40234375 0.40234375
vt 0.40234375 0.58984375
vt 0.3984375 0.58984375
vt 0.53125 0.72265625
vt 0.40625 0.72265625
vt 0.40625 0.71875
vt 0.53125 0.71875
vt 0.53125 0.71484375
vt 0.40625 0.71484375
vt 0.40625 0.71875
vt 0.53125 0.71875
vn 0 0 -1
vn 1 0 0
vn 0 0 1
vn -1 0 0
vn 0 1 0
vn 0 -1 0
usemtl m_e010923a-1c95-672b-a757-086599275e86
f 9/25/7 10/26/7 11/27/7 12/28/7
f 13/29/8 9/30/8 12/31/8 14/32/8
f 15/33/9 13/34/9 14/35/9 16/36/9
f 10/37/10 15/38/10 16/39/10 11/40/10
f 16/41/11 14/42/11 12/43/11 11/44/11
f 10/45/12 9/46/12 13/47/12 15/48/12
o cube
v 1 0.625 -0.375
v -1 0.625 -0.375
v -1 1.25 -0.375
v 1 1.25 -0.375
v 1 0.625 0.4375
v 1 1.25 0.4375
v -1 0.625 0.4375
v -1 1.25 0.4375
vt 0.25 0.81640625
vt 0.375 0.81640625
vt 0.375 0.85546875
vt 0.25 0.85546875
vt 0.125 0.7109375
vt 0.17578125 0.7109375
vt 0.17578125 0.75
vt 0.125 0.75
vt 0.125 0.671875
vt 0.25 0.671875
vt 0.25 0.7109375
vt 0.125 0.7109375
vt 0.17578125 0.7109375
vt 0.2265625 0.7109375
vt 0.2265625 0.75
vt 0.17578125 0.75
vt 0.3515625 0.8125
vt 0.2265625 0.8125
vt 0.2265625 0.76171875
vt 0.3515625 0.76171875
vt 0.3515625 0.7109375
vt 0.2265625 0.7109375
vt 0.2265625 0.76171875
vt 0.3515625 0.76171875
vn 0 0 -1
vn 1 0 0
vn 0 0 1
vn -1 0 0
vn 0 1 0
vn 0 -1 0
usemtl m_e010923a-1c95-672b-a757-086599275e86
f 17/49/13 18/50/13 19/51/13 20/52/13
f 21/53/14 17/54/14 20/55/14 22/56/14
f 23/57/15 21/58/15 22/59/15 24/60/15
f 18/61/16 23/62/16 24/63/16 19/64/16
f 24/65/17 22/66/17 20/67/17 19/68/17
f 18/69/18 17/70/18 21/71/18 23/72/18
o cube
v -0.125 1.25 -0.375
v -1 1.25 -0.375
v -1 1.4375 -0.375
v -0.125 1.4375 -0.375
v -0.125 1.25 0.4375
v -0.125 1.4375 0.4375
v -1 1.25 0.4375
v -1 1.4375 0.4375
vt 0.40234375 0.578125
vt 0.45703125 0.578125
vt 0.45703125 0.58984375
vt 0.40234375 0.58984375
vt 0.1640625 0.5546875
vt 0.21484375 0.5546875
vt 0.21484375 0.56640625
vt 0.1640625 0.56640625
vt 0 0.5703125
vt 0.0546875 0.5703125
vt 0.0546875 0.58203125
vt 0 0.58203125
vt 0.21484375 0.56640625
vt 0.265625 0.56640625
vt 0.265625 0.578125
vt 0.21484375 0.578125
vt 0.40625 0.81640625
vt 0.3515625 0.81640625
vt 0.3515625 0.765625
vt 0.40625 0.765625
vt 0.40625 0.71484375
vt 0.3515625 0.71484375
vt 0.3515625 0.765625
vt 0.40625 0.765625
vn 0 0 -1
vn 1 0 0
vn 0 0 1
vn -1 0 0
vn 0 1 0
vn 0 -1 0
usemtl m_e010923a-1c95-672b-a757-086599275e86
f 25/73/19 26/74/19 27/75/19 28/76/19
f 29/77/20 25/78/20 28/79/20 30/80/20
f 31/81/21 29/82/21 30/83/21 32/84/21
f 26/85/22 31/86/22 32/87/22 27/88/22
f 32/89/23 30/90/23 28/91/23 27/92/23
f 26/93/24 25/94/24 29/95/24 31/96/24
o cube
v 1 1.25 -0.375
v 0.8125 1.25 -0.375
v 0.8125 2.0625 -0.375
v 1 2.0625 -0.375
v 1 1.25 0.4375
v 1 2.0625 0.4375
v 0.8125 1.25 0.4375
v 0.8125 2.0625 0.4375
vt 0.34375 0.53515625
vt 0.35546875 0.53515625
vt 0.35546875 0.5859375
vt 0.34375 0.5859375
vt 0.34375 0.5859375
vt 0.39453125 0.5859375
vt 0.39453125 0.63671875
vt 0.34375 0.63671875
vt 0.35546875 0.53515625
vt 0.3671875 0.53515625
vt 0.3671875 0.5859375
vt 0.35546875 0.5859375
vt 0.375 0.94921875
vt 0.42578125 0.94921875
vt 0.42578125 1
vt 0.375 1
vt 0.37890625 0.5859375
vt 0.3671875 0.5859375
vt 0.3671875 0.53515625
vt 0.37890625 0.53515625
vt 0.390625 0.53515625
vt 0.37890625 0.53515625
vt 0.37890625 0.5859375
vt 0.390625 0.5859375
vn 0 0 -1
vn 1 0 0
vn 0 0 1
vn -1 0 0
vn 0 1 0
vn 0 -1 0
usemtl m_e010923a-1c95-672b-a757-086599275e86
f 33/97/25 34/98/25 35/99/25 36/100/25
f 37/101/26 33/102/26 36/103/26 38/104/26
f 39/105/27 37/106/27 38/107/27 40/108/27
f 34/109/28 39/110/28 40/111/28 35/112/28
f 40/113/29 38/114/29 36/115/29 35/116/29
f 34/117/30 33/118/30 37/119/30 39/120/30
o cube
v -0.125 1.4375 -0.375
v -0.4375 1.4375 -0.375
v -0.4375 2.0625 -0.375
v -0.125 2.0625 -0.375
v -0.125 1.4375 0.4375
v -0.125 2.0625 0.4375
v -0.4375 1.4375 0.4375
v -0.4375 2.0625 0.4375
vt 0.3046875 0.55078125
vt 0.32421875 0.55078125
vt 0.32421875 0.58984375
vt 0.3046875 0.58984375
vt 0.375 0.91015625
vt 0.42578125 0.91015625
vt 0.42578125 0.94921875
vt 0.375 0.94921875
vt 0.32421875 0.55078125
vt 0.34375 0.55078125
vt 0.34375 0.58984375
vt 0.32421875 0.58984375
vt 0.375 0.87109375
vt 0.42578125 0.87109375
vt 0.42578125 0.91015625
vt 0.375 0.91015625
vt 0.28515625 0.58984375
vt 0.265625 0.58984375
vt 0.265625 0.5390625
vt 0.28515625 0.5390625
vt 0.3046875 0.5390625
vt 0.28515625 0.5390625
vt 0.28515625 0.58984375
vt 0.3046875 0.58984375
vn 0 0 -1
vn 1 0 0
vn 0 0 1
vn -1 0 0
vn 0 1 0
vn 0 -1 0
usemtl m_e010923a-1c95-672b-a757-086599275e86
f 41/121/31 42/122/31 43/123/31 44/124/31
f 45/125/32 41/126/32 44/127/32 46/128/32
f 47/129/33 45/130/33 46/131/33 48/132/33
f 42/133/34 47/134/34 48/135/34 43/136/34
f 48/137/35 46/138/35 44/139/35 43/140/35
f 42/141/36 41/142/36 45/143/36 47/144/36
o cube
v -0.4375 1.39350625 -0.091045
v -0.8125 1.39350625 -0.091045
v -0.8125 2.0810062499999997 -0.091045
v -0.4375 2.0810062499999997 -0.091045
v -0.4375 1.39350625 -0.028545
v -0.4375 2.0810062499999997 -0.028545
v -0.8125 1.39350625 -0.028545
v -0.8125 2.0810062499999997 -0.028545
vt 0.40625 0.72265625
vt 0.453125 0.72265625
vt 0.453125 0.80859375
vt 0.40625 0.80859375
vt 0.15625 0.53125
vt 0.16015625 0.53125
vt 0.16015625 0.57421875
vt 0.15625 0.57421875
vt 0.40625 0.72265625
vt 0.4296875 0.72265625
vt 0.4296875 0.765625
vt 0.40625 0.765625
vt 0.16015625 0.53125
vt 0.1640625 0.53125
vt 0.1640625 0.57421875
vt 0.16015625 0.57421875
vt 0.4453125 0.64453125
vt 0.421875 0.64453125
vt 0.421875 0.640625
vt 0.4453125 0.640625
vt 0.4453125 0.63671875
vt 0.421875 0.63671875
vt 0.421875 0.640625
vt 0.4453125 0.640625
vn 0 0 -1
vn 1 0 0
vn 0 0 1
vn -1 0 0
vn 0 1 0
vn 0 -1 0
usemtl m_e010923a-1c95-672b-a757-086599275e86
f 49/145/37 50/146/37 51/147/37 52/148/37
f 53/149/38 49/150/38 52/151/38 54/152/38
f 55/153/39 53/154/39 54/155/39 56/156/39
f 50/157/40 55/158/40 56/159/40 51/160/40
f 56/161/41 54/162/41 52/163/41 51/164/41
f 50/165/42 49/166/42 53/167/42 55/168/42
o cube
v -0.4375 1.3797575 -0.3510825
v -0.8125 1.3797575 -0.3510825
v -0.8125 1.4375 -0.375
v -0.4375 1.4375 -0.375
v -0.4375 1.52326375 -0.0046275
v -0.4375 1.58100625 -0.028545
v -0.8125 1.52326375 -0.0046275
v -0.8125 1.58100625 -0.028545
vt 0.30859375 0.8125
vt 0.33203125 0.8125
vt 0.33203125 0.81640625
vt 0.30859375 0.81640625
vt 0.3515625 0.7109375
vt 0.375 0.7109375
vt 0.375 0.71484375
vt 0.3515625 0.71484375
vt 0.375 0.81640625
vt 0.3984375 0.81640625
vt 0.3984375 0.8203125
vt 0.375 0.8203125
vt 0.421875 0.64453125
vt 0.4453125 0.64453125
vt 0.4453125 0.6484375
vt 0.421875 0.6484375
vt 0.1015625 0.58203125
vt 0.078125 0.58203125
vt 0.078125 0.55859375
vt 0.1015625 0.55859375
vt 0.4453125 0.65234375
vt 0.421875 0.65234375
vt 0.421875 0.67578125
vt 0.4453125 0.67578125
vn 0 -0.38268033737113405 -0.9238808144936852
vn 1 0 0
vn 0 0.3826803373711346 0.923880814493685
vn -1 0 0
vn 0 0.9238796359863626 -0.382683182554063
vn 0 -0.9238796359863626 0.3826831825540631
usemtl m_e010923a-1c95-672b-a757-086599275e86
f 57/169/43 58/170/43 59/171/43 60/172/43
f 61/173/44 57/174/44 60/175/44 62/176/44
f 63/177/45 61/178/45 62/179/45 64/180/45
f 58/181/46 63/182/46 64/183/46 59/184/46
f 64/185/47 62/186/47 60/187/47 59/188/47
f 58/189/48 57/190/48 61/191/48 63/192/48
o cube
v -0.5 1.4289456249999999 -0.307775625
v -0.75 1.4289456249999999 -0.307775625
v -0.75 1.4866881250000001 -0.331693125
v -0.5 1.4866881250000001 -0.331693125
v -0.5 1.50069875 -0.134548125
v -0.5 1.55844125 -0.158465625
v -0.75 1.50069875 -0.134548125
v -0.75 1.55844125 -0.158465625
vt 0.33203125 0.8125
vt 0.34765625 0.8125
vt 0.34765625 0.81640625
vt 0.33203125 0.81640625
vt 0.390625 0.82421875
vt 0.40234375 0.82421875
vt 0.40234375 0.828125
vt 0.390625 0.828125
vt 0.390625 0.828125
vt 0.40625 0.828125
vt 0.40625 0.83203125
vt 0.390625 0.83203125
vt 0.390625 0.8203125
vt 0.40234375 0.8203125
vt 0.40234375 0.82421875
vt 0.390625 0.82421875
vt 0.390625 0.83203125
vt 0.375 0.83203125
vt 0.375 0.8203125
vt 0.390625 0.8203125
vt 0.34375 0.6015625
vt 0.328125 0.6015625
vt 0.328125 0.61328125
vt 0.34375 0.61328125
vn 0 -0.38268033737113377 -0.9238808144936854
vn 1 0 0
vn 0 0.3826803373711341 0.9238808144936851
vn -1 0 0
vn 0 0.9238796359863626 -0.38268318255406303
vn 0 -0.9238796359863626 0.382683182554063
usemtl m_e010923a-1c95-672b-a757-086599275e86
f 65/193/49 66/194/49 67/195/49 68/196/49
f 69/197/50 65/198/50 68/199/50 70/200/50
f 71/201/51 69/202/51 70/203/51 72/204/51
f 66/205/52 71/206/52 72/207/52 67/208/52
f 72/209/53 70/210/53 68/211/53 67/212/53
f 66/213/54 65/214/54 69/215/54 71/216/54
o cube
v -0.8125 1.4375 -0.375
v -1 1.4375 -0.375
v -1 2.0625 -0.375
v -0.8125 2.0625 -0.375
v -0.8125 1.4375 0.4375
v -0.8125 2.0625 0.4375
v -1 1.4375 0.4375
v -1 2.0625 0.4375
vt 0.1015625 0.54296875
vt 0.11328125 0.54296875
vt 0.11328125 0.58203125
vt 0.1015625 0.58203125
vt 0.375 0.83203125
vt 0.42578125 0.83203125
vt 0.42578125 0.87109375
vt 0.375 0.87109375
vt 0.40234375 0.5390625
vt 0.4140625 0.5390625
vt 0.4140625 0.578125
vt 0.40234375 0.578125
vt 0.375 0.67578125
vt 0.42578125 0.67578125
vt 0.42578125 0.71484375
vt 0.375 0.71484375
vt 0.06640625 0.58203125
vt 0.0546875 0.58203125
vt 0.0546875 0.53125
vt 0.06640625 0.53125
vt 0.078125 0.53125
vt 0.06640625 0.53125
vt 0.06640625 0.58203125
vt 0.078125 0.58203125
vn 0 0 -1
vn 1 0 0
vn 0 0 1
vn -1 0 0
vn 0 1 0
vn 0 -1 0
usemtl m_e010923a-1c95-672b-a757-086599275e86
f 73/217/55 74/218/55 75/219/55 76/220/55
f 77/221/56 73/222/56 76/223/56 78/224/56
f 79/225/57 77/226/57 78/227/57 80/228/57
f 74/229/58 79/230/58 80/231/58 75/232/58
f 80/233/59 78/234/59 76/235/59 75/236/59
f 74/237/60 73/238/60 77/239/60 79/240/60
o cube
v 1 2.0625 -0.375
v -1 2.0625 -0.375
v -1 2.875 -0.375
v 1 2.875 -0.375
v 1 2.0625 0.4375
v 1 2.875 0.4375
v -1 2.0625 0.4375
v -1 2.875 0.4375
vt 0.125 0.63671875
vt 0.25 0.63671875
vt 0.25 0.6796875
vt 0.125 0.6796875
vt 0.1640625 0.56640625
vt 0.21484375 0.56640625
vt 0.21484375 0.61328125
vt 0.1640625 0.61328125
vt 0.25 0.63671875
vt 0.375 0.63671875
vt 0.375 0.671875
vt 0.25 0.671875
vt 0.21484375 0.56640625
vt 0.265625 0.56640625
vt 0.265625 0.61328125
vt 0.21484375 0.61328125
vt 0.125 0.75
vt 0 0.75
vt 0 0.69921875
vt 0.125 0.69921875
vt 0.375 0.94921875
vt 0.25 0.94921875
vt 0.25 1
vt 0.375 1
vn 0 0 -1
vn 1 0 0
vn 0 0 1
vn -1 0 0
vn 0 1 0
vn 0 -1 0
usemtl m_e010923a-1c95-672b-a757-086599275e86
f 81/241/61 82/242/61 83/243/61 84/244/61
f 85/245/62 81/246/62 84/247/62 86/248/62
f 87/249/63 85/250/63 86/251/63 88/252/63
f 82/253/64 87/254/64 88/255/64 83/256/64
f 88/257/65 86/258/65 84/259/65 83/260/65
f 82/261/66 81/262/66 85/263/66 87/264/66
o cube
v 0.875 2.6249374999999997 -0.564125
v -0.875 2.6249374999999997 -0.564125
v -0.875 3 -0.564125
v 0.875 3 -0.564125
v 0.875 2.6249374999999997 0.498375
v 0.875 3 0.498375
v -0.875 2.6249374999999997 0.498375
v -0.875 3 0.498375
vt 0.1171875 0.61328125
vt 0.23046875 0.61328125
vt 0.23046875 0.63671875
vt 0.1171875 0.63671875
vt 0.265625 0.58984375
vt 0.328125 0.58984375
vt 0.328125 0.61328125
vt 0.265625 0.61328125
vt 0.23046875 0.61328125
vt 0.34375 0.61328125
vt 0.34375 0.63671875
vt 0.23046875 0.63671875
vt 0 0.58203125
vt 0.0625 0.58203125
vt 0.0625 0.60546875
vt 0 0.60546875
vt 0.11328125 0.8125
vt 0 0.8125
vt 0 0.75
vt 0.11328125 0.75
vt 0.2265625 0.75
vt 0.11328125 0.75
vt 0.11328125 0.8125
vt 0.2265625 0.8125
vn 0 0 -1
vn 1 0 0
vn 0 0 1
vn -1 0 0
vn 0 1 0
vn 0 -1 0
usemtl m_e010923a-1c95-672b-a757-086599275e86
f 89/265/67 90/266/67 91/267/67 92/268/67
f 93/269/68 89/270/68 92/271/68 94/272/68
f 95/273/69 93/274/69 94/275/69 96/276/69
f 90/277/70 95/278/70 96/279/70 91/280/70
f 96/281/71 94/282/71 92/283/71 91/284/71
f 90/285/72 89/286/72 93/287/72 95/288/72
o cube
v 0.8125 1.25 -0.375
v -0.125 1.25 -0.375
v -0.125 2.0583943749999998 -0.040151875
v 0.8125 2.0583943749999998 -0.040151875
v 0.8125 1.2260825 -0.3172575
v 0.8125 2.034476875 0.017590625
v -0.125 1.2260825 -0.3172575
v -0.125 2.034476875 0.017590625
vt 0 0.41796875
vt 0.1171875 0.41796875
vt 0.1171875 0.52734375
vt 0 0.52734375
vt 0.390625 0.53125
vt 0.39453125 0.53125
vt 0.39453125 0.5859375
vt 0.390625 0.5859375
vt 0.05859375 0.60546875
vt 0.1171875 0.60546875
vt 0.1171875 0.66015625
vt 0.05859375 0.66015625
vt 0.11328125 0.52734375
vt 0.1171875 0.52734375
vt 0.1171875 0.58203125
vt 0.11328125 0.58203125
vt 0.30859375 0.81640625
vt 0.25 0.81640625
vt 0.25 0.8125
vt 0.30859375 0.8125
vt 0.48046875 0.6484375
vt 0.421875 0.6484375
vt 0.421875 0.65234375
vt 0.48046875 0.65234375
vn 0 0.3826836383191391 -0.9238794472022994
vn 1 0 0
vn 0 -0.38268363831913915 0.9238794472022994
vn -1 0 0
vn 0 0.9238808144936849 0.3826803373711347
vn 0 -0.923880814493685 -0.3826803373711344
usemtl m_e010923a-1c95-672b-a757-086599275e86
f 97/289/73 98/290/73 99/291/73 100/292/73
f 101/293/74 97/294/74 100/295/74 102/296/74
f 103/297/75 101/298/75 102/299/75 104/300/75
f 98/301/76 103/302/76 104/303/76 99/304/76
f 104/305/77 102/306/77 100/307/77 99/308/77
f 98/309/78 97/310/78 101/311/78 103/312/78