# Made in Blockbench 5.1.6
mtllib goahead_fahrkartenautomat.mtl

o cube
v 1 0 -0.375
v -1 0 -0.375
v -1 0.625 -0.375
v 1 0.625 -0.375
v 1 0 0.4375
v 1 0.625 0.4375
v -1 0 0.4375
v -1 0.625 0.4375
vt 0.25 0.671875
vt 0.375 0.671875
vt 0.375 0.7109375
vt 0.25 0.7109375
vt 0.375 0.63671875
vt 0.421875 0.63671875
vt 0.421875 0.67578125
vt 0.375 0.67578125
vt 0 0.66015625
vt 0.125 0.66015625
vt 0.125 0.69921875
vt 0 0.69921875
vt 0.11328125 0.57421875
vt 0.1640625 0.57421875
vt 0.1640625 0.61328125
vt 0.11328125 0.61328125
vt 0.375 0.94921875
vt 0.25 0.94921875
vt 0.25 0.90234375
vt 0.375 0.90234375
vt 0.375 0.85546875
vt 0.25 0.85546875
vt 0.25 0.90234375
vt 0.375 0.90234375
vn 0 0 -1
vn 1 0 0
vn 0 0 1
vn -1 0 0
vn 0 1 0
vn 0 -1 0
usemtl m_ccee7841-7d09-8b54-4c5c-c64c28131e33
f 1/1/1 2/2/1 3/3/1 4/4/1
f 5/5/2 1/6/2 4/7/2 6/8/2
f 7/9/3 5/10/3 6/11/3 8/12/3
f 2/13/4 7/14/4 8/15/4 3/16/4
f 8/17/5 6/18/5 4/19/5 3/20/5
f 2/21/6 1/22/6 5/23/6 7/24/6
o cube
v 1 0 0.4375
v -1 0 0.4375
v -1 2.625 0.4375
v 1 2.625 0.4375
v 1 0 0.5
v 1 2.625 0.5
v -1 0 0.5
v -1 2.625 0.5
vt 0 0.8125
vt 0.125 0.8125
vt 0.125 1
vt 0 1
vt 0.39453125 0.40234375
vt 0.3984375 0.40234375
vt 0.3984375 0.56640625
vt 0.39453125 0.56640625
vt 0.125 0.8125
vt 0.25 0.8125
vt 0.25 0.984375
vt 0.125 0.984375
vt 0.3984375 0.40234375
vt 0.40234375 0.40234375
vt 0.40234375 0.56640625
vt 0.3984375 0.56640625
vt 0.53125 0.72265625
vt 0.40625 0.72265625
vt 0.40625 0.71875
vt 0.53125 0.71875
vt 0.53125 0.71484375
vt 0.40625 0.71484375
vt 0.40625 0.71875
vt 0.53125 0.71875
vn 0 0 -1
vn 1 0 0
vn 0 0 1
vn -1 0 0
vn 0 1 0
vn 0 -1 0
usemtl m_ccee7841-7d09-8b54-4c5c-c64c28131e33
f 9/25/7 10/26/7 11/27/7 12/28/7
f 13/29/8 9/30/8 12/31/8 14/32/8
f 15/33/9 13/34/9 14/35/9 16/36/9
f 10/37/10 15/38/10 16/39/10 11/40/10
f 16/41/11 14/42/11 12/43/11 11/44/11
f 10/45/12 9/46/12 13/47/12 15/48/12
o cube
v 1 0.625 -0.375
v -1 0.625 -0.375
v -1 1.25 -0.375
v 1 1.25 -0.375
v 1 0.625 0.4375
v 1 1.25 0.4375
v -1 0.625 0.4375
v -1 1.25 0.4375
vt 0.25 0.81640625
vt 0.375 0.81640625
vt 0.375 0.85546875
vt 0.25 0.85546875
vt 0.125 0.7109375
vt 0.17578125 0.7109375
vt 0.17578125 0.75
vt 0.125 0.75
vt 0.125 0.671875
vt 0.25 0.671875
vt 0.25 0.7109375
vt 0.125 0.7109375
vt 0.17578125 0.7109375
vt 0.2265625 0.7109375
vt 0.2265625 0.75
vt 0.17578125 0.75
vt 0.3515625 0.8125
vt 0.2265625 0.8125
vt 0.2265625 0.76171875
vt 0.3515625 0.76171875
vt 0.3515625 0.7109375
vt 0.2265625 0.7109375
vt 0.2265625 0.76171875
vt 0.3515625 0.76171875
vn 0 0 -1
vn 1 0 0
vn 0 0 1
vn -1 0 0
vn 0 1 0
vn 0 -1 0
usemtl m_ccee7841-7d09-8b54-4c5c-c64c28131e33
f 17/49/13 18/50/13 19/51/13 20/52/13
f 21/53/14 17/54/14 20/55/14 22/56/14
f 23/57/15 21/58/15 22/59/15 24/60/15
f 18/61/16 23/62/16 24/63/16 19/64/16
f 24/65/17 22/66/17 20/67/17 19/68/17
f 18/69/18 17/70/18 21/71/18 23/72/18
o cube
v -0.125 1.25 -0.375
v -1 1.25 -0.375
v -1 1.4375 -0.375
v -0.125 1.4375 -0.375
v -0.125 1.25 0.4375
v -0.125 1.4375 0.4375
v -1 1.25 0.4375
v -1 1.4375 0.4375
vt 0.40234375 0.578125
vt 0.45703125 0.578125
vt 0.45703125 0.58984375
vt 0.40234375 0.58984375
vt 0.1640625 0.56640625
vt 0.21484375 0.56640625
vt 0.21484375 0.578125
vt 0.1640625 0.578125
vt 0 0.5703125
vt 0.0546875 0.5703125
vt 0.0546875 0.58203125
vt 0 0.58203125
vt 0.21484375 0.56640625
vt 0.265625 0.56640625
vt 0.265625 0.578125
vt 0.21484375 0.578125
vt 0.40625 0.81640625
vt 0.3515625 0.81640625
vt 0.3515625 0.765625
vt 0.40625 0.765625
vt 0.40625 0.71484375
vt 0.3515625 0.71484375
vt 0.3515625 0.765625
vt 0.40625 0.765625
vn 0 0 -1
vn 1 0 0
vn 0 0 1
vn -1 0 0
vn 0 1 0
vn 0 -1 0
usemtl m_ccee7841-7d09-8b54-4c5c-c64c28131e33
f 25/73/19 26/74/19 27/75/19 28/76/19
f 29/77/20 25/78/20 28/79/20 30/80/20
f 31/81/21 29/82/21 30/83/21 32/84/21
f 26/85/22 31/86/22 32/87/22 27/88/22
f 32/89/23 30/90/23 28/91/23 27/92/23
f 26/93/24 25/94/24 29/95/24 31/96/24
o cube
v 1 1.25 -0.375
v 0.8125 1.25 -0.375
v 0.8125 2.0625 -0.375
v 1 2.0625 -0.375
v 1 1.25 0.4375
v 1 2.0625 0.4375
v 0.8125 1.25 0.4375
v 0.8125 2.0625 0.4375
vt 0.34375 0.53515625
vt 0.35546875 0.53515625
vt 0.35546875 0.5859375
vt 0.34375 0.5859375
vt 0.34375 0.5859375
vt 0.39453125 0.5859375
vt 0.39453125 0.63671875
vt 0.34375 0.63671875
vt 0.35546875 0.53515625
vt 0.3671875 0.53515625
vt 0.3671875 0.5859375
vt 0.35546875 0.5859375
vt 0.375 0.94921875
vt 0.42578125 0.94921875
vt 0.42578125 1
vt 0.375 1
vt 0.37890625 0.5859375
vt 0.3671875 0.5859375
vt 0.3671875 0.53515625
vt 0.37890625 0.53515625
vt 0.390625 0.53515625
vt 0.37890625 0.53515625
vt 0.37890625 0.5859375
vt 0.390625 0.5859375
vn 0 0 -1
vn 1 0 0
vn 0 0 1
vn -1 0 0
vn 0 1 0
vn 0 -1 0
usemtl m_ccee7841-7d09-8b54-4c5c-c64c28131e33
f 33/97/25 34/98/25 35/99/25 36/100/25
f 37/101/26 33/102/26 36/103/26 38/104/26
f 39/105/27 37/106/27 38/107/27 40/108/27
f 34/109/28 39/110/28 40/111/28 35/112/28
f 40/113/29 38/114/29 36/115/29 35/116/29
f 34/117/30 33/118/30 37/119/30 39/120/30
o cube
v -0.125 1.4375 -0.375
v -0.4375 1.4375 -0.375
v -0.4375 2.0625 -0.375
v -0.125 2.0625 -0.375
v -0.125 1.4375 0.4375
v -0.125 2.0625 0.4375
v -0.4375 1.4375 0.4375
v -0.4375 2.0625 0.4375
vt 0.3046875 0.55078125
vt 0.32421875 0.55078125
vt 0.32421875 0.58984375
vt 0.3046875 0.58984375
vt 0.375 0.91015625
vt 0.42578125 0.91015625
vt 0.42578125 0.94921875
vt 0.375 0.94921875
vt 0.32421875 0.55078125
vt 0.34375 0.55078125
vt 0.34375 0.58984375
vt 0.32421875 0.58984375
vt 0.375 0.87109375
vt 0.42578125 0.87109375
vt 0.42578125 0.91015625
vt 0.375 0.91015625
vt 0.28515625 0.58984375
vt 0.265625 0.58984375
vt 0.265625 0.5390625
vt 0.28515625 0.5390625
vt 0.3046875 0.5390625
vt 0.28515625 0.5390625
vt 0.28515625 0.58984375
vt 0.3046875 0.58984375
vn 0 0 -1
vn 1 0 0
vn 0 0 1
vn -1 0 0
vn 0 1 0
vn 0 -1 0
usemtl m_ccee7841-7d09-8b54-4c5c-c64c28131e33
f 41/121/31 42/122/31 43/123/31 44/124/31
f 45/125/32 41/126/32 44/127/32 46/128/32
f 47/129/33 45/130/33 46/131/33 48/132/33
f 42/133/34 47/134/34 48/135/34 43/136/34
f 48/137/35 46/138/35 44/139/35 43/140/35
f 42/141/36 41/142/36 45/143/36 47/144/36
o cube
v -0.4375 1.39350625 -0.09104499999999999
v -0.8125 1.39350625 -0.09104499999999999
v -0.8125 2.0810062499999997 -0.09104499999999999
v -0.4375 2.0810062499999997 -0.09104499999999999
v -0.4375 1.39350625 -0.028544999999999987
v -0.4375 2.0810062499999997 -0.028544999999999987
v -0.8125 1.39350625 -0.028544999999999987
v -0.8125 2.0810062499999997 -0.028544999999999987
vt 0.40625 0.72265625
vt 0.453125 0.72265625
vt 0.453125 0.80859375
vt 0.40625 0.80859375
vt 0.15625 0.53125
vt 0.16015625 0.53125
vt 0.16015625 0.57421875
vt 0.15625 0.57421875
vt 0.40625 0.72265625
vt 0.4296875 0.72265625
vt 0.4296875 0.765625
vt 0.40625 0.765625
vt 0.16015625 0.53125
vt 0.1640625 0.53125
vt 0.1640625 0.57421875
vt 0.16015625 0.57421875
vt 0.4453125 0.64453125
vt 0.421875 0.64453125
vt 0.421875 0.640625
vt 0.4453125 0.640625
vt 0.4453125 0.63671875
vt 0.421875 0.63671875
vt 0.421875 0.640625
vt 0.4453125 0.640625
vn 0 0 -1
vn 1 0 0
vn 0 0 1
vn -1 0 0
vn 0 1 0
vn 0 -1 0
usemtl m_ccee7841-7d09-8b54-4c5c-c64c28131e33
f 49/145/37 50/146/37 51/147/37 52/148/37
f 53/149/38 49/150/38 52/151/38 54/152/38
f 55/153/39 53/154/39 54/155/39 56/156/39
f 50/157/40 55/158/40 56/159/40 51/160/40
f 56/161/41 54/162/41 52/163/41 51/164/41
f 50/165/42 49/166/42 53/167/42 55/168/42
o cube
v -0.4375 1.3797575292180446 -0.3510822854771819
v -0.8125 1.3797575292180446 -0.3510822854771819
v -0.8125 1.4375 -0.375
v -0.4375 1.4375 -0.375
v -0.4375 1.5232638163549532 -0.0046274607854494
v -0.4375 1.5810062871369086 -0.0285451753082675
v -0.8125 1.5232638163549532 -0.0046274607854494
v -0.8125 1.5810062871369086 -0.0285451753082675
vt 0.30859375 0.8125
vt 0.33203125 0.8125
vt 0.33203125 0.81640625
vt 0.30859375 0.81640625
vt 0.3515625 0.7109375
vt 0.375 0.7109375
vt 0.375 0.71484375
vt 0.3515625 0.71484375
vt 0.375 0.81640625
vt 0.3984375 0.81640625
vt 0.3984375 0.8203125
vt 0.375 0.8203125
vt 0.421875 0.64453125
vt 0.4453125 0.64453125
vt 0.4453125 0.6484375
vt 0.421875 0.6484375
vt 0.1015625 0.58203125
vt 0.078125 0.58203125
vt 0.078125 0.55859375
vt 0.1015625 0.55859375
vt 0.4453125 0.65234375
vt 0.421875 0.65234375
vt 0.421875 0.67578125
vt 0.4453125 0.67578125
vn 0 -0.38268343236508956 -0.9238795325112868
vn 1 0 0
vn 0 0.3826834323650899 0.9238795325112867
vn -1 0 0
vn 0 0.9238795325112868 -0.3826834323650897
vn 0 -0.9238795325112868 0.3826834323650899
usemtl m_ccee7841-7d09-8b54-4c5c-c64c28131e33
f 57/169/43 58/170/43 59/171/43 60/172/43
f 61/173/44 57/174/44 60/175/44 62/176/44
f 63/177/45 61/178/45 62/179/45 64/180/45
f 58/181/46 63/182/46 64/183/46 59/184/46
f 64/185/47 62/186/47 60/187/47 59/188/47
f 58/189/48 57/190/48 61/191/48 63/192/48
o cube
v -0.5 1.4289458151101582 -0.30777543239071536
v -0.75 1.4289458151101582 -0.30777543239071536
v -0.75 1.4866882858921135 -0.33169314691353347
v -0.5 1.4866882858921135 -0.33169314691353347
v -0.5 1.5006989586786124 -0.13454802004484906
v -0.5 1.558441429460568 -0.15846573456766716
v -0.75 1.5006989586786124 -0.13454802004484906
v -0.75 1.558441429460568 -0.15846573456766716
vt 0.33203125 0.8125
vt 0.34765625 0.8125
vt 0.34765625 0.81640625
vt 0.33203125 0.81640625
vt 0.390625 0.82421875
vt 0.40234375 0.82421875
vt 0.40234375 0.828125
vt 0.390625 0.828125
vt 0.390625 0.828125
vt 0.40625 0.828125
vt 0.40625 0.83203125
vt 0.390625 0.83203125
vt 0.390625 0.8203125
vt 0.40234375 0.8203125
vt 0.40234375 0.82421875
vt 0.390625 0.82421875
vt 0.390625 0.83203125
vt 0.375 0.83203125
vt 0.375 0.8203125
vt 0.390625 0.8203125
vt 0.34375 0.6015625
vt 0.328125 0.6015625
vt 0.328125 0.61328125
vt 0.34375 0.61328125
vn 0 -0.3826834323650896 -0.923879532511287
vn 1 0 0
vn 0 0.3826834323650893 0.9238795325112871
vn -1 0 0
vn 0 0.9238795325112868 -0.38268343236508984
vn 0 -0.9238795325112868 0.38268343236508956
usemtl m_ccee7841-7d09-8b54-4c5c-c64c28131e33
f 65/193/49 66/194/49 67/195/49 68/196/49
f 69/197/50 65/198/50 68/199/50 70/200/50
f 71/201/51 69/202/51 70/203/51 72/204/51
f 66/205/52 71/206/52 72/207/52 67/208/52
f 72/209/53 70/210/53 68/211/53 67/212/53
f 66/213/54 65/214/54 69/215/54 71/216/54
o cube
v -0.8125 1.4375 -0.375
v -1 1.4375 -0.375
v -1 2.0625 -0.375
v -0.8125 2.0625 -0.375
v -0.8125 1.4375 0.4375
v -0.8125 2.0625 0.4375
v -1 1.4375 0.4375
v -1 2.0625 0.4375
vt 0.1015625 0.54296875
vt 0.11328125 0.54296875
vt 0.11328125 0.58203125
vt 0.1015625 0.58203125
vt 0.375 0.83203125
vt 0.42578125 0.83203125
vt 0.42578125 0.87109375
vt 0.375 0.87109375
vt 0.40234375 0.5390625
vt 0.4140625 0.5390625
vt 0.4140625 0.578125
vt 0.40234375 0.578125
vt 0.375 0.67578125
vt 0.42578125 0.67578125
vt 0.42578125 0.71484375
vt 0.375 0.71484375
vt 0.06640625 0.58203125
vt 0.0546875 0.58203125
vt 0.0546875 0.53125
vt 0.06640625 0.53125
vt 0.078125 0.53125
vt 0.06640625 0.53125
vt 0.06640625 0.58203125
vt 0.078125 0.58203125
vn 0 0 -1
vn 1 0 0
vn 0 0 1
vn -1 0 0
vn 0 1 0
vn 0 -1 0
usemtl m_ccee7841-7d09-8b54-4c5c-c64c28131e33
f 73/217/55 74/218/55 75/219/55 76/220/55
f 77/221/56 73/222/56 76/223/56 78/224/56
f 79/225/57 77/226/57 78/227/57 80/228/57
f 74/229/58 79/230/58 80/231/58 75/232/58
f 80/233/59 78/234/59 76/235/59 75/236/59
f 74/237/60 73/238/60 77/239/60 79/240/60
o cube
v -0.375 2.0625 -0.375
v -1 2.0625 -0.375
v -1 2.625 -0.375
v -0.375 2.625 -0.375
v -0.375 2.0625 0.4375
v -0.375 2.625 0.4375
v -1 2.0625 0.4375
v -1 2.625 0.4375
vt 0.2109375 0.63671875
vt 0.25 0.63671875
vt 0.25 0.671875
vt 0.2109375 0.671875
vt 0.1640625 0.51171875
vt 0.21484375 0.51171875
vt 0.21484375 0.546875
vt 0.1640625 0.546875
vt 0.25 0.63671875
vt 0.2890625 0.63671875
vt 0.2890625 0.671875
vt 0.25 0.671875
vt 0.21484375 0.57421875
vt 0.265625 0.57421875
vt 0.265625 0.61328125
vt 0.21484375 0.61328125
vt 0.125 0.75
vt 0.0859375 0.75
vt 0.0859375 0.69921875
vt 0.125 0.69921875
vt 0.375 0.94921875
vt 0.3359375 0.94921875
vt 0.3359375 1
vt 0.375 1
vn 0 0 -1
vn 1 0 0
vn 0 0 1
vn -1 0 0
vn 0 1 0
vn 0 -1 0
usemtl m_ccee7841-7d09-8b54-4c5c-c64c28131e33
f 81/241/61 82/242/61 83/243/61 84/244/61
f 85/245/62 81/246/62 84/247/62 86/248/62
f 87/249/63 85/250/63 86/251/63 88/252/63
f 82/253/64 87/254/64 88/255/64 83/256/64
f 88/257/65 86/258/65 84/259/65 83/260/65
f 82/261/66 81/262/66 85/263/66 87/264/66
o cube
v 0.875 2.0625 -0.375
v -0.375 2.0625 -0.375
v -0.375 2.1875 -0.375
v 0.875 2.1875 -0.375
v 0.875 2.0625 0.4375
v 0.875 2.1875 0.4375
v -0.375 2.0625 0.4375
v -0.375 2.1875 0.4375
vt 0.1328125 0.63671875
vt 0.2109375 0.63671875
vt 0.2109375 0.64453125
vt 0.1328125 0.64453125
vt 0.1640625 0.578125
vt 0.21484375 0.578125
vt 0.21484375 0.5859375
vt 0.1640625 0.5859375
vt 0.2890625 0.63671875
vt 0.3671875 0.63671875
vt 0.3671875 0.64453125
vt 0.2890625 0.64453125
vt 0.21484375 0.57421875
vt 0.265625 0.57421875
vt 0.265625 0.582899375
vt 0.21484375 0.582899375
vt 0.0859375 0.75
vt 0.0078125 0.75
vt 0.0078125 0.69921875
vt 0.0859375 0.69921875
vt 0.3359375 0.94921875
vt 0.2578125 0.94921875
vt 0.2578125 1
vt 0.3359375 1
vn 0 0 -1
vn 1 0 0
vn 0 0 1
vn -1 0 0
vn 0 1 0
vn 0 -1 0
usemtl m_ccee7841-7d09-8b54-4c5c-c64c28131e33
f 89/265/67 90/266/67 91/267/67 92/268/67
f 93/269/68 89/270/68 92/271/68 94/272/68
f 95/273/69 93/274/69 94/275/69 96/276/69
f 90/277/70 95/278/70 96/279/70 91/280/70
f 96/281/71 94/282/71 92/283/71 91/284/71
f 90/285/72 89/286/72 93/287/72 95/288/72
o cube
v 0.875 2.1875 -0.328125
v -0.375 2.1875 -0.328125
v -0.375 2.5 -0.328125
v 0.875 2.5 -0.328125
v 0.875 2.1875 0.421875
v 0.875 2.5 0.421875
v -0.375 2.1875 0.421875
v -0.375 2.5 0.421875
vt 0.1328125 0.64453125
vt 0.2109375 0.64453125
vt 0.2109375 0.6640625
vt 0.1328125 0.6640625
vt 0.1640625 0.5859375
vt 0.21484375 0.5859375
vt 0.21484375 0.60546875
vt 0.1640625 0.60546875
vt 0.2890625 0.64453125
vt 0.3671875 0.64453125
vt 0.3671875 0.6640625
vt 0.2890625 0.6640625
vt 0.21484375 0.582899375
vt 0.265625 0.582899375
vt 0.265625 0.604600625
vt 0.21484375 0.604600625
vt 0.0859375 0.75
vt 0.0078125 0.75
vt 0.0078125 0.69921875
vt 0.0859375 0.69921875
vt 0.3359375 0.94921875
vt 0.2578125 0.94921875
vt 0.2578125 1
vt 0.3359375 1
vn 0 0 -1
vn 1 0 0
vn 0 0 1
vn -1 0 0
vn 0 1 0
vn 0 -1 0
usemtl m_ccee7841-7d09-8b54-4c5c-c64c28131e33
f 97/289/73 98/290/73 99/291/73 100/292/73
f 101/293/74 97/294/74 100/295/74 102/296/74
f 103/297/75 101/298/75 102/299/75 104/300/75
f 98/301/76 103/302/76 104/303/76 99/304/76
f 104/305/77 102/306/77 100/307/77 99/308/77
f 98/309/78 97/310/78 101/311/78 103/312/78
o cube
v 0.875 2.1875 -0.375
v -0.375 2.1875 -0.375
v -0.375 2.5 -0.375
v 0.875 2.5 -0.375
vt 0.1640625 0.546875
vt 0.2421875 0.546875
vt 0.2421875 0.56640625
vt 0.1640625 0.56640625
vn 0 0 -1
usemtl m_ccee7841-7d09-8b54-4c5c-c64c28131e33
f 105/313/79 106/314/79 107/315/79 108/316/79
o cube
v 0.875 2.5 -0.375
v -0.375 2.5 -0.375
v -0.375 2.625 -0.375
v 0.875 2.625 -0.375
v 0.875 2.5 0.4375
v 0.875 2.625 0.4375
v -0.375 2.5 0.4375
v -0.375 2.625 0.4375
vt 0.1328125 0.6640625
vt 0.2109375 0.6640625
vt 0.2109375 0.671875
vt 0.1328125 0.671875
vt 0.1640625 0.60546875
vt 0.21484375 0.60546875
vt 0.21484375 0.61328125
vt 0.1640625 0.61328125
vt 0.2890625 0.6640625
vt 0.3671875 0.6640625
vt 0.3671875 0.671875
vt 0.2890625 0.671875
vt 0.21484375 0.604600625
vt 0.265625 0.604600625
vt 0.265625 0.61328125
vt 0.21484375 0.61328125
vt 0.0859375 0.75
vt 0.0078125 0.75
vt 0.0078125 0.69921875
vt 0.0859375 0.69921875
vt 0.2421875 0.4921875
vt 0.1640625 0.4921875
vt 0.1640625 0.54296875
vt 0.2421875 0.54296875
vn 0 0 -1
vn 1 0 0
vn 0 0 1
vn -1 0 0
vn 0 1 0
vn 0 -1 0
usemtl m_ccee7841-7d09-8b54-4c5c-c64c28131e33
f 109/317/80 110/318/80 111/319/80 112/320/80
f 113/321/81 109/322/81 112/323/81 114/324/81
f 115/325/82 113/326/82 114/327/82 116/328/82
f 110/329/83 115/330/83 116/331/83 111/332/83
f 116/333/84 114/334/84 112/335/84 111/336/84
f 110/337/85 109/338/85 113/339/85 115/340/85
o cube
v 1 2.0625 -0.375
v 0.875 2.0625 -0.375
v 0.875 2.625 -0.375
v 1 2.625 -0.375
v 1 2.0625 0.4375
v 1 2.625 0.4375
v 0.875 2.0625 0.4375
v 0.875 2.625 0.4375
vt 0.125 0.63671875
vt 0.1328125 0.63671875
vt 0.1328125 0.671875
vt 0.125 0.671875
vt 0.1640625 0.578125
vt 0.21484375 0.578125
vt 0.21484375 0.61328125
vt 0.1640625 0.61328125
vt 0.3671875 0.63671875
vt 0.375 0.63671875
vt 0.375 0.671875
vt 0.3671875 0.671875
vt 0.1640625 0.5078125
vt 0.21484375 0.5078125
vt 0.21484375 0.546875
vt 0.1640625 0.546875
vt 0.0078125 0.75
vt 0 0.75
vt 0 0.69921875
vt 0.0078125 0.69921875
vt 0.2578125 0.94921875
vt 0.25 0.94921875
vt 0.25 1
vt 0.2578125 1
vn 0 0 -1
vn 1 0 0
vn 0 0 1
vn -1 0 0
vn 0 1 0
vn 0 -1 0
usemtl m_ccee7841-7d09-8b54-4c5c-c64c28131e33
f 117/341/86 118/342/86 119/343/86 120/344/86
f 121/345/87 117/346/87 120/347/87 122/348/87
f 123/349/88 121/350/88 122/351/88 124/352/88
f 118/353/89 123/354/89 124/355/89 119/356/89
f 124/357/90 122/358/90 120/359/90 119/360/90
f 118/361/91 117/362/91 121/363/91 123/364/91
o cube
v 1.0000000000000002 2.6249374999999997 -0.564125
v -1 2.6249374999999997 -0.564125
v -1 3 -0.564125
v 1.0000000000000002 3 -0.564125
v 1.0000000000000002 2.6249374999999997 0.49837499999999996
v 1.0000000000000002 3 0.49837499999999996
v -1 2.6249374999999997 0.49837499999999996
v -1 3 0.49837499999999996
vt 0.1171875 0.61328125
vt 0.23046875 0.61328125
vt 0.23046875 0.63671875
vt 0.1171875 0.63671875
vt 0.265625 0.58984375
vt 0.328125 0.58984375
vt 0.328125 0.61328125
vt 0.265625 0.61328125
vt 0.23046875 0.61328125
vt 0.34375 0.61328125
vt 0.34375 0.63671875
vt 0.23046875 0.63671875
vt 0 0.58203125
vt 0.0625 0.58203125
vt 0.0625 0.60546875
vt 0 0.60546875
vt 0.11328125 0.8125
vt 0 0.8125
vt 0 0.75
vt 0.11328125 0.75
vt 0.2265625 0.75
vt 0.11328125 0.75
vt 0.11328125 0.8125
vt 0.2265625 0.8125
vn 0 0 -1
vn 1 0 0
vn 0 0 1
vn -1 0 0
vn 0 1 0
vn 0 -1 0
usemtl m_ccee7841-7d09-8b54-4c5c-c64c28131e33
f 125/365/92 126/366/92 127/367/92 128/368/92
f 129/369/93 125/370/93 128/371/93 130/372/93
f 131/373/94 129/374/94 130/375/94 132/376/94
f 126/377/95 131/378/95 132/379/95 127/380/95
f 132/381/96 130/382/96 128/383/96 127/384/96
f 126/385/97 125/386/97 129/387/97 131/388/97
o cube
v 0.8125 1.25 -0.375
v -0.125 1.25 -0.375
v -0.125 2.0583945909473758 -0.040151996680546476
v 0.8125 2.0583945909473758 -0.040151996680546476
v 0.8125 1.2260822854771818 -0.31725752921804456
v 0.8125 2.0344768764245575 0.01759047410140896
v -0.125 1.2260822854771818 -0.31725752921804456
v -0.125 2.0344768764245575 0.01759047410140896
vt 0 0.41796875
vt 0.1171875 0.41796875
vt 0.1171875 0.52734375
vt 0 0.52734375
vt 0.390625 0.53125
vt 0.39453125 0.53125
vt 0.39453125 0.5859375
vt 0.390625 0.5859375
vt 0.05859375 0.60546875
vt 0.1171875 0.60546875
vt 0.1171875 0.66015625
vt 0.05859375 0.66015625
vt 0.11328125 0.52734375
vt 0.1171875 0.52734375
vt 0.1171875 0.58203125
vt 0.11328125 0.58203125
vt 0.30859375 0.81640625
vt 0.25 0.81640625
vt 0.25 0.8125
vt 0.30859375 0.8125
vt 0.48046875 0.6484375
vt 0.421875 0.6484375
vt 0.421875 0.65234375
vt 0.48046875 0.65234375
vn 0 0.3826834323650899 -0.9238795325112868
vn 1 0 0
vn 0 -0.38268343236508984 0.9238795325112868
vn -1 0 0
vn 0 0.9238795325112876 0.3826834323650881
vn 0 -0.9238795325112868 -0.3826834323650895
usemtl m_ccee7841-7d09-8b54-4c5c-c64c28131e33
f 133/389/98 134/390/98 135/391/98 136/392/98
f 137/393/99 133/394/99 136/395/99 138/396/99
f 139/397/100 137/398/100 138/399/100 140/400/100
f 134/401/101 139/402/101 140/403/101 135/404/101
f 140/405/102 138/406/102 136/407/102 135/408/102
f 134/409/103 133/410/103 137/411/103 139/412/103